<?xml version="1.0" encoding="UTF-8" standalone="no"?>
<!-- Created with Inkscape (http://www.inkscape.org/) -->

<svg
   width="150"
   height="150"
   viewBox="0 0 39.687499 39.6875"
   version="1.1"
   id="svg1"
   inkscape:export-filename="logo.png"
   inkscape:export-xdpi="51.200001"
   inkscape:export-ydpi="51.200001"
   inkscape:version="1.3.2 (091e20ef0f, 2023-11-25, custom)"
   sodipodi:docname="logo.svg"
   xmlns:inkscape="http://www.inkscape.org/namespaces/inkscape"
   xmlns:sodipodi="http://sodipodi.sourceforge.net/DTD/sodipodi-0.dtd"
   xmlns:xlink="http://www.w3.org/1999/xlink"
   xmlns="http://www.w3.org/2000/svg"
   xmlns:svg="http://www.w3.org/2000/svg">
  <sodipodi:namedview
     id="namedview1"
     pagecolor="#505050"
     bordercolor="#ffffff"
     borderopacity="1"
     inkscape:showpageshadow="0"
     inkscape:pageopacity="0"
     inkscape:pagecheckerboard="1"
     inkscape:deskcolor="#d1d1d1"
     inkscape:document-units="px"
     inkscape:zoom="3.1706752"
     inkscape:cx="70.332022"
     inkscape:cy="79.320643"
     inkscape:window-width="1920"
     inkscape:window-height="1015"
     inkscape:window-x="0"
     inkscape:window-y="598"
     inkscape:window-maximized="1"
     inkscape:current-layer="layer1" />
  <defs
     id="defs1">
    <linearGradient
       id="linearGradient3"
       inkscape:collect="always">
      <stop
         style="stop-color:#e85b58;stop-opacity:1;"
         offset="0"
         id="stop3" />
      <stop
         style="stop-color:#f1a853;stop-opacity:1;"
         offset="0.5"
         id="stop5" />
      <stop
         style="stop-color:#f3ff74;stop-opacity:1;"
         offset="1"
         id="stop4" />
    </linearGradient>
    <linearGradient
       inkscape:collect="always"
       xlink:href="#linearGradient3"
       id="linearGradient4"
       x1="67.978432"
       y1="77.037155"
       x2="91.212425"
       y2="76.64328"
       gradientUnits="userSpaceOnUse"
       gradientTransform="rotate(15.912008,305.76408,-165.24494)" />
  </defs>
  <g
     inkscape:label="Layer 1"
     inkscape:groupmode="layer"
     id="layer1">
    <path
       style="fill:url(#linearGradient4);fill-opacity:1;stroke:none;stroke-width:0.264583px;stroke-linecap:butt;stroke-linejoin:miter;stroke-opacity:1"
       d="M 33.308455,4.8761164 C 24.466208,0.57590135 12.461606,-0.15509335 1.0978091,5.0705364 l -0.0777,0.981021 c 1.419763,-0.477824 5.435201,-2.052589 11.0703059,-2.093006 -5.0691869,0.90315 -8.80202,3.086724 -11.24478091,4.29595 C 2.1046431,8.1323314 2.892666,8.0677034 3.542284,8.0309284 2.5203061,8.7872964 1.0204431,10.269821 0.65643409,10.643374 3.302908,9.5948315 6.5329731,7.9481274 8.7283313,7.7298864 6.3169251,8.7852254 3.24421,10.068915 0.54239909,12.083183 l -0.04233,0.53448 0.97287701,-0.213729 -1.03182401,0.95798 0.0014,0.987289 C 3.159316,12.470156 5.9420051,10.935537 8.9257243,9.9754005 18.588392,6.8660334 27.7226,9.3150934 34.220169,13.704231 l 2.299814,-5.2376856 z"
       id="path3"
       sodipodi:nodetypes="cccccccccccccsccc" />
    <path
       id="rect1"
       style="fill:#35bee8;fill-opacity:1;fill-rule:evenodd;stroke-width:4.465;stroke-linecap:round"
       d="m 34.477509,13.346817 1.710333,1.533286 -3.378264,3.768351 C 29.269627,26.40729 25.153284,27.25458 17.14692,36.11966 l -1.710334,-1.53328 c 8.196028,-9.44827 8.622436,-13.56201 15.478873,-17.266207 z"
       sodipodi:nodetypes="ccccccc" />
    <path
       id="path1"
       style="fill:#35bee8;fill-opacity:1;fill-rule:evenodd;stroke-width:3.65134;stroke-linecap:round"
       d="m 30.816661,37.50645 c -0.188737,0.0908 -26.0891489,0 -26.0891489,0 2e-6,-7.20432 5.8402569,-13.04457 13.0445749,-13.04457 7.204318,0 13.044572,5.84025 13.044574,13.04457 z"
       sodipodi:nodetypes="ccsc" />
    <path
       style="fill:#dbbf5a;fill-opacity:1;stroke:none;stroke-width:0.307067px;stroke-linecap:butt;stroke-linejoin:miter;stroke-opacity:1"
       d="M 33.308456,4.8761164 C 42.429807,8.0518084 40.684667,21.3212 31.638192,18.339158 25.24167,14.976862 39.101247,12.293429 33.308456,4.8761164 Z"
       id="path2"
       sodipodi:nodetypes="ccc" />
    <circle
       style="display:none;fill:#e735e8;fill-opacity:0.502539;fill-rule:evenodd;stroke:none;stroke-width:8.47775;stroke-linecap:round"
       id="path5"
       cx="79.520683"
       cy="117.78819"
       r="28.954041" />
  </g>
</svg>
